<svg width="16" height="16" viewBox="0 0 16 16" fill="none" xmlns="http://www.w3.org/2000/svg">
<g clip-path="url(#clip0_1277_14042)">
<path d="M3.37357 11.6354C3.37357 10.9451 2.89191 10.3618 2.23191 10.1731V6.95459C2.03524 6.99704 1.83024 7.02063 1.61857 7.02063C1.40691 7.02063 1.20191 6.99704 1.00524 6.95459V10.2911C0.503574 10.5489 0.163574 11.0552 0.163574 11.6354C0.163574 12.4797 0.881907 13.1637 1.76857 13.1637C2.13357 13.1637 2.46691 13.0473 2.73691 12.8524L5.23024 13.9247C5.31524 13.5316 5.49191 13.17 5.73691 12.8602L3.35857 11.8382C3.36691 11.7722 3.37357 11.7046 3.37357 11.6354Z" fill="white"/>
<path d="M15.8367 4.38843C15.8367 3.54566 15.1183 2.86013 14.23 2.86013C13.8567 2.86013 13.515 2.98277 13.2417 3.18717L10.765 2.09912C10.675 2.4922 10.5 2.85069 10.25 3.1573L12.6367 4.20446C12.63 4.26578 12.625 4.32553 12.625 4.38843C12.625 5.07868 13.1067 5.66201 13.7683 5.85069V9.1054C13.9633 9.06295 14.1683 9.03936 14.38 9.03936C14.5917 9.03936 14.7967 9.06295 14.9933 9.1054V5.73276C15.495 5.4749 15.835 4.97019 15.835 4.38843H15.8367Z" fill="white"/>
<path d="M9.13522 6.93092C9.28689 7.074 9.40189 7.24066 9.48355 7.42777C9.56522 7.61488 9.60522 7.80984 9.60522 8.0111C9.60522 8.21393 9.56522 8.4089 9.48355 8.59601C9.40189 8.78311 9.28689 8.94821 9.13522 9.09286C8.98522 9.23594 8.81189 9.34601 8.61522 9.42305C8.41856 9.50167 8.21355 9.5394 8.00022 9.5394C7.78689 9.5394 7.58189 9.50167 7.38522 9.42305C7.18855 9.34601 7.01522 9.23594 6.86522 9.09286C6.71355 8.94821 6.59855 8.78311 6.51689 8.59601C6.43522 8.4089 6.39355 8.21393 6.39355 8.0111C6.39355 7.80984 6.43522 7.61488 6.51689 7.42777C6.59855 7.24066 6.71355 7.074 6.86522 6.93092C7.01522 6.78783 7.18855 6.67777 7.38522 6.60073C7.58189 6.52211 7.78689 6.48438 8.00022 6.48438C8.21355 6.48438 8.41856 6.52211 8.61522 6.60073C8.81189 6.67777 8.98522 6.78783 9.13522 6.93092Z" fill="white"/>
<mask id="mask0_1277_14042" style="mask-type:luminance" maskUnits="userSpaceOnUse" x="6" y="8" width="10" height="8">
<path d="M6.10498 8.61182H16V16.0002H6.10498V8.61182Z" fill="white"/>
</mask>
<g mask="url(#mask0_1277_14042)">
<path d="M14.9936 10.3211C14.8052 10.2472 14.5969 10.2047 14.3819 10.2047C14.1652 10.2047 13.9569 10.2472 13.7686 10.3211C13.6702 10.3604 13.5786 10.4107 13.4919 10.4673L10.4086 8.66699C10.2902 9.06951 10.0619 9.42957 9.75522 9.71102L12.7969 11.4893C12.7836 11.5679 12.7752 11.6497 12.7752 11.733C12.7752 11.7487 12.7752 11.7645 12.7786 11.7802L9.09855 13.362C8.96522 13.2425 8.80855 13.145 8.63855 13.0742V10.3211C8.43522 10.3714 8.22022 10.3981 7.99855 10.3981C7.77689 10.3981 7.56355 10.3714 7.36022 10.3211V13.0742C7.18855 13.145 7.03355 13.2425 6.90022 13.362C6.59689 13.6308 6.40522 14.0066 6.39855 14.4264C6.39355 14.4421 6.39355 14.4579 6.39355 14.4736C6.39355 15.3164 7.11355 16.0019 8.00022 16.0019C8.88689 16.0019 9.60522 15.3164 9.60522 14.4736C9.60522 14.4579 9.60522 14.4421 9.60189 14.4264L13.2836 12.8447C13.5686 13.1009 13.9569 13.2613 14.3819 13.2613C15.2686 13.2613 15.9886 12.5758 15.9886 11.733C15.9886 11.0962 15.5786 10.5522 14.9952 10.3226L14.9936 10.3211Z" fill="white"/>
</g>
<mask id="mask1_1277_14042" style="mask-type:luminance" maskUnits="userSpaceOnUse" x="0" y="0" width="10" height="8">
<path d="M0 0H9.945V7.40408H0V0Z" fill="white"/>
</mask>
<g mask="url(#mask1_1277_14042)">
<path d="M3.22339 4.32704C3.22339 4.30817 3.22339 4.28458 3.22005 4.26414L6.91005 2.64622C7.04172 2.76257 7.19505 2.85849 7.36172 2.92767V5.70597C7.56505 5.65408 7.77839 5.62735 8.00005 5.62735C8.22172 5.62735 8.43672 5.65408 8.64005 5.70597V2.92767C8.80672 2.85849 8.96005 2.76257 9.09172 2.64622C9.39339 2.38207 9.58505 2.00943 9.60172 1.58962C9.60505 1.57075 9.60505 1.54717 9.60505 1.52673C9.60505 0.683961 8.88672 0 8.00005 0C7.11339 0 6.39339 0.683961 6.39339 1.52673C6.39339 1.54559 6.39339 1.56918 6.39839 1.58962L2.70839 3.20754C2.42339 2.9544 2.03839 2.79874 1.61672 2.79874C0.731719 2.79874 0.0117188 3.4827 0.0117188 4.32704C0.0117188 4.96383 0.420052 5.50785 1.00339 5.73741C1.19172 5.81131 1.40005 5.85376 1.61672 5.85376C1.83339 5.85376 2.04172 5.81131 2.22839 5.73741C2.36339 5.68395 2.48672 5.61477 2.60005 5.53144L5.61005 7.2893C5.74172 6.8915 5.98005 6.53773 6.29505 6.26257L3.21172 4.46068C3.21672 4.41666 3.22172 4.37263 3.22172 4.32704H3.22339Z" fill="white"/>
</g>
</g>
<defs>
<clipPath id="clip0_1277_14042">
<rect width="16" height="16" fill="white"/>
</clipPath>
</defs>
</svg>
